HIERARCHY
ROOT Hips
{
    OFFSET 0.000000 0.000000 0.000000
    CHANNELS 6 Xposition Yposition Zposition Zrotation Xrotation Yrotation
    JOINT Spine
    {
        OFFSET -0.000000 14.517291 0.000000
        CHANNELS 3 Zrotation Xrotation Yrotation
        JOINT Spine1
        {
            OFFSET -0.000000 37.558300 0.000000
            CHANNELS 3 Zrotation Xrotation Yrotation
            JOINT Neck
            {
                OFFSET -0.000000 37.404057 3.400369
                CHANNELS 3 Zrotation Xrotation Yrotation
                JOINT Head
                {
                    OFFSET -0.000000 24.785618 -3.540803
                    CHANNELS 3 Zrotation Xrotation Yrotation
                    End Site
                    {
                        OFFSET -0.000000 35.408028 0.000000
                    }
                }
            }
            JOINT LeftShoulder
            {
                OFFSET 6.992933 33.973492 -0.192664
                CHANNELS 3 Zrotation Xrotation Yrotation
                JOINT LeftArm
                {
                    OFFSET 21.527611 0.000000 0.000000
                    CHANNELS 3 Zrotation Xrotation Yrotation
                    JOINT LeftForeArm
                    {
                        OFFSET 56.353916 0.000000 0.000000
                        CHANNELS 3 Zrotation Xrotation Yrotation
                        JOINT LeftHand
                        {
                            OFFSET 47.774071 0.000000 0.000000
                            CHANNELS 3 Zrotation Xrotation Yrotation
                            End Site
                            {
                                OFFSET 26.556021 0.000000 0.000000
                            }
                        }
                    }
                }
            }
            JOINT RightShoulder
            {
                OFFSET -7.065357 33.973492 -0.192664
                CHANNELS 3 Zrotation Xrotation Yrotation
                JOINT RightArm
                {
                    OFFSET -21.527611 0.000000 0.000000
                    CHANNELS 3 Zrotation Xrotation Yrotation
                    JOINT RightForeArm
                    {
                        OFFSET -56.353916 0.000000 0.000000
                        CHANNELS 3 Zrotation Xrotation Yrotation
                        JOINT RightHand
                        {
                            OFFSET -47.774071 0.000000 0.000000
                            CHANNELS 3 Zrotation Xrotation Yrotation
                            End Site
                            {
                                OFFSET -26.556021 0.000000 0.000000
                            }
                        }
                    }
                }
            }
        }
    }
    JOINT LeftUpLeg
    {
        OFFSET 17.704014 0.000000 0.000000
        CHANNELS 3 Zrotation Xrotation Yrotation
        JOINT LeftLeg
        {
            OFFSET -0.000000 -81.181816 0.000000
            CHANNELS 3 Zrotation Xrotation Yrotation
            JOINT LeftFoot
            {
                OFFSET -0.000000 -62.821102 0.000000
                CHANNELS 3 Zrotation Xrotation Yrotation
                JOINT LeftToeBase
                {
                    OFFSET -0.000000 -11.507608 26.556021
                    CHANNELS 3 Zrotation Xrotation Yrotation
                    End Site
                    {
                        OFFSET -0.000000 0.000000 7.081605
                    }
                }
            }
        }
    }
    JOINT RightUpLeg
    {
        OFFSET -17.704014 0.000000 0.000000
        CHANNELS 3 Zrotation Xrotation Yrotation
        JOINT RightLeg
        {
            OFFSET -0.000000 -81.181816 0.000000
            CHANNELS 3 Zrotation Xrotation Yrotation
            JOINT RightFoot
            {
                OFFSET -0.000000 -62.821102 0.000000
                CHANNELS 3 Zrotation Xrotation Yrotation
                JOINT RightToeBase
                {
                    OFFSET -0.000000 -11.507608 26.556021
                    CHANNELS 3 Zrotation Xrotation Yrotation
                    End Site
                    {
                        OFFSET -0.000000 0.000000 7.081605
                    }
                }
            }
        }
    }
}
MOTION
Frames:    4
Frame Time:    0.008333
-1.249107    154.868027    -32.592445    0.072733    2.035902    -19.013706    1.151917    3.856518    9.758247    0.248148    -0.662207    3.268003    5.323853    -1.004060    1.179915    0.696442    -1.539602    0.496916    -1.340577    6.222084    -7.153235    -44.858990    16.632984    -30.993341    2.515554    -31.854074    -124.498657    -7.538332    -27.027449    -11.489345    -2.732510    10.221742    5.079132    34.488342    9.286326    65.260689    -18.975658    -23.378046    64.447762    13.334705    -7.711875    34.846954    14.154194    -28.486380    -2.201538    -15.341539    25.992611    -11.962856    -0.928643    -1.161203    40.112362    0.000000    0.000000    0.000000    -10.436613    8.881958    -5.898650    2.579517    16.084509    -3.897006    7.633351    -25.185959    -1.740396    0.000000    0.000000    0.000000    
-1.314880    154.898514    -32.666435    0.107289    2.061210    -18.853970    1.162103    3.975465    9.726053    0.153207    -0.866978    3.257513    5.355900    -0.979499    1.145522    0.683814    -1.504839    0.455143    -1.341681    6.266798    -7.111317    -44.874603    16.676292    -30.989172    2.503262    -31.791025    -124.545639    -7.525530    -26.980211    -11.469378    -2.657548    10.269137    5.044312    34.490242    9.289119    65.258270    -18.959734    -23.342222    64.510323    13.373097    -7.660170    34.821072    14.075643    -28.501810    -2.299368    -15.272376    25.810656    -12.037491    -1.003928    -1.018305    40.106670    0.000000    0.000000    0.000000    -10.380158    8.905721    -5.279085    2.652789    16.021603    -3.841940    7.674161    -25.313488    -1.774740    0.000000    0.000000    0.000000    
-1.380698    154.929276    -32.748360    0.147700    2.090964    -18.700668    1.142730    3.958373    9.711542    0.147916    -0.876001    3.252361    5.359004    -0.949960    1.108685    0.639032    -1.541518    0.411083    -1.348368    6.283595    -7.123057    -44.893700    16.659826    -31.015619    2.499712    -31.740921    -124.549545    -7.543476    -26.931635    -11.471426    -2.665176    10.268347    5.025040    34.488655    9.262002    65.270912    -18.960951    -23.350241    64.516838    13.406569    -7.649389    34.872208    13.983347    -28.511812    -2.347048    -15.145248    25.615271    -12.153985    -1.106494    -0.882096    40.085205    0.000000    0.000000    0.000000    -10.330738    8.921338    -4.748037    2.703959    15.950333    -3.737385    7.647202    -25.414375    -1.665071    0.000000    0.000000    0.000000    
-1.442247    154.960037    -32.830799    0.185578    2.110180    -18.527800    1.130440    3.956649    9.684517    0.146089    -0.889478    3.243185    5.304278    -0.918977    1.065192    0.661452    -1.584350    0.379592    -1.368131    6.317131    -7.123226    -44.886486    16.672165    -31.069206    2.498487    -31.736288    -124.533295    -7.545637    -26.929173    -11.487681    -2.691377    10.274313    5.014534    34.515900    9.198340    65.280952    -18.934780    -23.310686    64.536255    13.391685    -7.625241    34.861015    13.883688    -28.520081    -2.494398    -15.072972    25.401031    -12.181395    -1.190152    -0.730166    40.069462    0.000000    0.000000    0.000000    -10.322478    8.942589    -4.074368    2.911242    15.911178    -3.725741    7.438354    -25.533823    -1.892428    0.000000    0.000000    0.000000    
